<svg width="720" height="120" viewBox="0 0 720 120" fill="none" xmlns="http://www.w3.org/2000/svg">
<rect x="140" width="580" height="120" fill="black"/>
<rect width="20" height="120" fill="white"/>
<rect x="20" width="120" height="120" fill="white"/>
<path d="M58.2493 18L43.25 32.9993V87.0007H61.2522V102L76.2515 87.0007H88.2425L115.248 60V18H58.2493ZM109.248 57.0023L97.2515 68.9985H85.25L74.75 79.4985V68.9985H61.2522V24.0008H109.248V57.0023Z" fill="#9147FF"/>
<path d="M100.249 34.5007H94.2483V52.4925H100.249V34.5007ZM83.7483 34.5007H77.7476V52.4925H83.7483V34.5007Z" fill="#9147FF"/>
<path d="M0.499837 -4.81606e-05H2.6665L0.499837 2.02527V-4.81606e-05Z" fill="black"/>
<path d="M20 0.253193V3.54433L0.333332 20.7595V12.4051L14.5 0.253193H20Z" fill="black"/>
<path d="M20 12.4051V20.7595L0.333332 37.9747V29.6203L20 12.4051Z" fill="black"/>
<path d="M20 30.1265V38.481L0.333332 55.6962V47.3417L20 30.1265Z" fill="black"/>
<path d="M20 46.8354V55.1898L0.333332 72.405V64.0506L20 46.8354Z" fill="black"/>
<path d="M19.6665 64.557V72.9114L-0.000164032 90.1266V81.7722L19.6665 64.557Z" fill="black"/>
<path d="M19.6665 81.7722V90.1266L-0.000164032 107.342V98.9874L19.6665 81.7722Z" fill="black"/>
<path d="M19.6665 98.7342V107.342L4.99984 120H-0.000164032V115.949L19.6665 98.7342Z" fill="black"/>
<path d="M17.3333 120H20V117.722L17.3333 120Z" fill="black"/>
</svg>
